# xmcd
# 
# Track frame offsets:
#     150
#     10848
#     25355
#     45078
#     57624
#     77059
#     93937
#     111266
#     117340
#     133952
#     152951
#     169912
#     186118
#     203280
#     227878
#     246521
#     256754
# 
# Disc length: 3706
# 
# Revision: 2
# Processed by: cddbd v1.5.2PL0 Copyright (c) Steve Scherf et al.
# Submitted via: fre:ac v1.0.31
# 
DISCID=e20e7811
DTITLE=Emmylou Harris - Amazing Grace Coffee House (Evanston, IL 15 May 1975)
DYEAR=2015
DGENRE=Country
TTITLE0=Cash On The Barrel Head
TTITLE1=That's All It Took
TTITLE2=My Blue Ridge Mountain Boy
TTITLE3=Feelin' Single Seein' Double
TTITLE4=Together Again
TTITLE5=Wheels
TTITLE6=Bluebird Wine
TTITLE7=Band Intros
TTITLE8=Bottle Let Me Down
TTITLE9=Hot Burrito No 2
TTITLE10=Ooh Las Vegas
TTITLE11=Rock N' Roll Music
TTITLE12=Sleepless Nights
TTITLE13=Queen Of The Silver Dollar
TTITLE14=Jambalaya
TTITLE15=Instrumental (Your Cheatin' Heart)
TTITLE16=Too Far Gone
EXTD=
EXTT0=
EXTT1=
EXTT2=
EXTT3=
EXTT4=
EXTT5=
EXTT6=
EXTT7=
EXTT8=
EXTT9=
EXTT10=
EXTT11=
EXTT12=
EXTT13=
EXTT14=
EXTT15=
EXTT16=
PLAYORDER=
